HIERARCHY
ROOT Hips
{
  OFFSET 5.72205e-005 65.662 3.42586
  CHANNELS 6 Xposition Yposition Zposition Zrotation Xrotation Yrotation
  JOINT Chest
  {
    OFFSET 0 8.7983 -4.7612
    CHANNELS 6 Xposition Yposition Zposition Zrotation Xrotation Yrotation
    JOINT Chest2
    {
      OFFSET 0 8.0291 0.4195
      CHANNELS 6 Xposition Yposition Zposition Zrotation Xrotation Yrotation
      JOINT Chest3
      {
        OFFSET 0 9.9351 -2.2114
        CHANNELS 6 Xposition Yposition Zposition Zrotation Xrotation Yrotation
        JOINT Neck
        {
          OFFSET 0 22.3885 -0.4656
          CHANNELS 6 Xposition Yposition Zposition Zrotation Xrotation Yrotation
          JOINT Head
          {
            OFFSET -0.0001 12.643 3.4389
            CHANNELS 6 Xposition Yposition Zposition Zrotation Xrotation Yrotation
            End Site
            {
              OFFSET 0.0001 17.6655 0.5274
            }
          }
        }
        JOINT LeftCollar
        {
          OFFSET 2.2603 21.606 7.4023
          CHANNELS 6 Xposition Yposition Zposition Zrotation Xrotation Yrotation
          JOINT LeftShoulder
          {
            OFFSET 13.5163 -1.1332 -5.0146
            CHANNELS 6 Xposition Yposition Zposition Zrotation Xrotation Yrotation
            JOINT LeftElbow
            {
              OFFSET -0.0995 -28.05 -0.2431
              CHANNELS 6 Xposition Yposition Zposition Zrotation Xrotation Yrotation
              JOINT LeftWrist
              {
                OFFSET 0.0679 -23.3996 -0.1402
                CHANNELS 6 Xposition Yposition Zposition Zrotation Xrotation Yrotation
                JOINT LeftFinger1
                {
                  OFFSET 0.7932 -9.069 2.5189
                  CHANNELS 6 Xposition Yposition Zposition Zrotation Xrotation Yrotation
                  JOINT LeftFinger11
                  {
                    OFFSET -0.8272 -3.3923 0.5977
                    CHANNELS 6 Xposition Yposition Zposition Zrotation Xrotation Yrotation
                    JOINT LeftFinger12
                    {
                      OFFSET -0.5649 -2.3158 0.4082
                      CHANNELS 6 Xposition Yposition Zposition Zrotation Xrotation Yrotation
                      End Site
                      {
                        OFFSET -0.4919 -1.6479 0.2673
                      }
                    }
                  }
                }
                JOINT LeftFinger2
                {
                  OFFSET 0.9159 -9.2044 0.2193
                  CHANNELS 6 Xposition Yposition Zposition Zrotation Xrotation Yrotation
                  JOINT LeftFinger21
                  {
                    OFFSET 0.0117 -4.1944 -0.0248
                    CHANNELS 6 Xposition Yposition Zposition Zrotation Xrotation Yrotation
                    JOINT LeftFinger22
                    {
                      OFFSET 0.0071 -2.3249 -0.0142
                      CHANNELS 6 Xposition Yposition Zposition Zrotation Xrotation Yrotation
                      End Site
                      {
                        OFFSET -0.1475 -2.0882 0.0028
                      }
                    }
                  }
                }
                JOINT LeftFinger3
                {
                  OFFSET 0.6113 -8.7231 -2.0637
                  CHANNELS 6 Xposition Yposition Zposition Zrotation Xrotation Yrotation
                  JOINT LeftFinger31
                  {
                    OFFSET -0.1927 -3.8059 -0.2383
                    CHANNELS 6 Xposition Yposition Zposition Zrotation Xrotation Yrotation
                    JOINT LeftFinger32
                    {
                      OFFSET -0.1091 -2.1688 -0.1362
                      CHANNELS 6 Xposition Yposition Zposition Zrotation Xrotation Yrotation
                      End Site
                      {
                        OFFSET -0.2358 -1.9176 -0.0906
                      }
                    }
                  }
                }
                JOINT LeftFinger4
                {
                  OFFSET -0.6151 -8.0947 -3.5641
                  CHANNELS 6 Xposition Yposition Zposition Zrotation Xrotation Yrotation
                  JOINT LeftFinger41
                  {
                    OFFSET -0.4882 -2.341 -0.6462
                    CHANNELS 6 Xposition Yposition Zposition Zrotation Xrotation Yrotation
                    JOINT LeftFinger42
                    {
                      OFFSET -0.3575 -1.7167 -0.4742
                      CHANNELS 6 Xposition Yposition Zposition Zrotation Xrotation Yrotation
                      End Site
                      {
                        OFFSET -0.4187 -1.5237 -0.3496
                      }
                    }
                  }
                }
                JOINT LeftFinger0
                {
                  OFFSET -1.42 -1.8761 1.4223
                  CHANNELS 6 Xposition Yposition Zposition Zrotation Xrotation Yrotation
                  JOINT LeftFinger01
                  {
                    OFFSET -1.1471 -3.4929 2.6334
                    CHANNELS 6 Xposition Yposition Zposition Zrotation Xrotation Yrotation
                    JOINT LeftFinger02
                    {
                      OFFSET -0.823 -2.3 1.6571
                      CHANNELS 6 Xposition Yposition Zposition Zrotation Xrotation Yrotation
                      End Site
                      {
                        OFFSET -0.5822 -1.6914 1.1582
                      }
                    }
                  }
                }
              }
            }
          }
        }
        JOINT RightCollar
        {
          OFFSET -2.2603 21.606 7.4023
          CHANNELS 6 Xposition Yposition Zposition Zrotation Xrotation Yrotation
          JOINT RightShoulder
          {
            OFFSET -13.5187 -1.1334 -5.0155
            CHANNELS 6 Xposition Yposition Zposition Zrotation Xrotation Yrotation
            JOINT RightElbow
            {
              OFFSET 0.0994 -28.0499 -0.2431
              CHANNELS 6 Xposition Yposition Zposition Zrotation Xrotation Yrotation
              JOINT RightWrist
              {
                OFFSET -0.0679 -23.3996 -0.1402
                CHANNELS 6 Xposition Yposition Zposition Zrotation Xrotation Yrotation
                JOINT RightFinger1
                {
                  OFFSET -0.7932 -9.0691 2.5189
                  CHANNELS 6 Xposition Yposition Zposition Zrotation Xrotation Yrotation
                  JOINT RightFinger11
                  {
                    OFFSET 0.8272 -3.3923 0.5977
                    CHANNELS 6 Xposition Yposition Zposition Zrotation Xrotation Yrotation
                    JOINT RightFinger12
                    {
                      OFFSET 0.565 -2.3158 0.4082
                      CHANNELS 6 Xposition Yposition Zposition Zrotation Xrotation Yrotation
                      End Site
                      {
                        OFFSET 0.4919 -1.6479 0.2673
                      }
                    }
                  }
                }
                JOINT RightFinger2
                {
                  OFFSET -0.916 -9.2044 0.2193
                  CHANNELS 6 Xposition Yposition Zposition Zrotation Xrotation Yrotation
                  JOINT RightFinger21
                  {
                    OFFSET -0.0117 -4.1944 -0.0248
                    CHANNELS 6 Xposition Yposition Zposition Zrotation Xrotation Yrotation
                    JOINT RightFinger22
                    {
                      OFFSET -0.0071 -2.3249 -0.0142
                      CHANNELS 6 Xposition Yposition Zposition Zrotation Xrotation Yrotation
                      End Site
                      {
                        OFFSET 0.1475 -2.0882 0.0028
                      }
                    }
                  }
                }
                JOINT RightFinger3
                {
                  OFFSET -0.6113 -8.7231 -2.0637
                  CHANNELS 6 Xposition Yposition Zposition Zrotation Xrotation Yrotation
                  JOINT RightFinger31
                  {
                    OFFSET 0.1927 -3.8059 -0.2383
                    CHANNELS 6 Xposition Yposition Zposition Zrotation Xrotation Yrotation
                    JOINT RightFinger32
                    {
                      OFFSET 0.1091 -2.1688 -0.1362
                      CHANNELS 6 Xposition Yposition Zposition Zrotation Xrotation Yrotation
                      End Site
                      {
                        OFFSET 0.2358 -1.9176 -0.0906
                      }
                    }
                  }
                }
                JOINT RightFinger4
                {
                  OFFSET 0.6151 -8.0947 -3.564
                  CHANNELS 6 Xposition Yposition Zposition Zrotation Xrotation Yrotation
                  JOINT RightFinger41
                  {
                    OFFSET 0.4882 -2.341 -0.6462
                    CHANNELS 6 Xposition Yposition Zposition Zrotation Xrotation Yrotation
                    JOINT RightFinger42
                    {
                      OFFSET 0.3574 -1.7166 -0.4742
                      CHANNELS 6 Xposition Yposition Zposition Zrotation Xrotation Yrotation
                      End Site
                      {
                        OFFSET 0.4187 -1.5237 -0.3496
                      }
                    }
                  }
                }
                JOINT RightFinger0
                {
                  OFFSET 1.4199 -1.8761 1.4221
                  CHANNELS 6 Xposition Yposition Zposition Zrotation Xrotation Yrotation
                  JOINT RightFinger01
                  {
                    OFFSET 1.1472 -3.4929 2.6336
                    CHANNELS 6 Xposition Yposition Zposition Zrotation Xrotation Yrotation
                    JOINT RightFinger02
                    {
                      OFFSET 0.8229 -2.3 1.6571
                      CHANNELS 6 Xposition Yposition Zposition Zrotation Xrotation Yrotation
                      End Site
                      {
                        OFFSET 0.5822 -1.6914 1.1582
                      }
                    }
                  }
                }
              }
            }
          }
        }
      }
    }
  }
  JOINT RightHip
  {
    OFFSET -9.412 3.9771 -0.7758
    CHANNELS 6 Xposition Yposition Zposition Zrotation Xrotation Yrotation
    JOINT RightKnee
    {
      OFFSET -0.7531 -40.938 0
      CHANNELS 6 Xposition Yposition Zposition Zrotation Xrotation Yrotation
      JOINT RightAnkle
      {
        OFFSET 0 -40.1986 0
        CHANNELS 6 Xposition Yposition Zposition Zrotation Xrotation Yrotation
        JOINT RightToe
        {
          OFFSET 0 -4.4182 9.239
          CHANNELS 6 Xposition Yposition Zposition Zrotation Xrotation Yrotation
          End Site
          {
            OFFSET 0 0 6.1981
          }
        }
      }
    }
  }
  JOINT LeftHip
  {
    OFFSET 9.4119 3.9773 -0.7758
    CHANNELS 6 Xposition Yposition Zposition Zrotation Xrotation Yrotation
    JOINT LeftKnee
    {
      OFFSET 0.7532 -40.9383 0
      CHANNELS 6 Xposition Yposition Zposition Zrotation Xrotation Yrotation
      JOINT LeftAnkle
      {
        OFFSET 0 -40.1986 0
        CHANNELS 6 Xposition Yposition Zposition Zrotation Xrotation Yrotation
        JOINT LeftToe
        {
          OFFSET 0 -4.4182 9.239
          CHANNELS 6 Xposition Yposition Zposition Zrotation Xrotation Yrotation
          End Site
          {
            OFFSET 0 0 6.1981
          }
        }
      }
    }
  }
}
MOTION
Frames:	4
Frame Time:	0.0333333
-0.00846258 55.1352 -15.2975 0.0104733 -9.49796 -179.874 -3.46945e-018 8.7983 -4.7612 -1.0729 1.2811 -0.323081 0 8.0291 0.4195 -2.13936 2.56799 -0.622336 -8.88178e-016 9.9351 -2.2114 -2.13937 2.568 -0.622337 0 22.3885 -0.4656 -8.25947e-005 -23.0547 -2.52528e-005 -0.0001 12.643 3.4389 8.4246e-008 -27.0676 1.48643e-007 2.2603 21.606 7.4023 -16.0337 24.151 -39.1539 13.5163 -1.1332 -5.0146 28.976 42.1241 34.6093 -0.0995 -28.05 -0.2431 -15.1376 -59.3961 18.2694 0.0679 -23.3996 -0.1402 -16.9209 -2.17157 -0.360885 0.7932 -9.06901 2.5189 -4.96962e-017 -6.36111e-015 -1.19271e-015 -0.8272 -3.3923 0.5977 1.59028e-015 -6.36111e-015 -1.19271e-015 -0.5649 -2.3158 0.4082 1.73937e-015 -6.36111e-015 -1.59028e-015 0.9159 -9.20441 0.2193 -4.96962e-017 -6.36111e-015 -1.19271e-015 0.0117 -4.1944 -0.0248 -0.0127838 0.00231566 8.49094e-005 0.0071 -2.3249 -0.0142 -5.05457e-006 1.21134e-006 1.75449e-007 0.6113 -8.72311 -2.0637 -4.96962e-017 -6.36111e-015 -1.19271e-015 -0.1927 -3.8059 -0.2383 -0.0160706 0.00299869 0.000859217 -0.1091 -2.1688 -0.1362 4.37326e-015 0 -3.97569e-016 -0.6151 -8.09471 -3.5641 -4.96962e-017 -6.36111e-015 -1.19271e-015 -0.4882 -2.341 -0.6462 -0.0125969 0.00312377 0.00282913 -0.3575 -1.7167 -0.4742 4.87022e-015 -3.18055e-015 3.97569e-016 -1.42 -1.8761 1.4223 -4.96962e-017 -6.36111e-015 -1.19271e-015 -1.1471 -3.4929 2.6334 1.59028e-015 -6.36111e-015 -1.19271e-015 -0.823 -2.3 1.6571 1.73937e-015 -6.36111e-015 -1.59028e-015 -2.2603 21.606 7.4023 17.7805 24.1535 34.0354 -13.5187 -1.1334 -5.0155 -33.2179 40.5463 -27.9629 0.0994 -28.0499 -0.2431 19.9871 -59.3884 -14.7574 -0.0679 -23.3996 -0.1402 16.9147 -2.15288 0.695934 -0.7932 -9.06911 2.5189 2.51585e-007 -1.67813e-006 1.68633e-006 0.8272 -3.3923 0.5977 9.93923e-017 -3.18055e-015 7.95139e-016 0.565 -2.3158 0.4082 1.98785e-016 -3.18055e-015 1.59028e-015 -0.916 -9.20441 0.2193 2.51585e-007 -1.67813e-006 1.68633e-006 -0.0117 -4.1944 -0.0248 0.0129745 0.00232278 -8.67599e-005 -0.0071 -2.3249 -0.0142 -1.39149e-015 0 1.19271e-015 -0.6113 -8.72311 -2.0637 2.51585e-007 -1.67813e-006 1.68633e-006 0.1927 -3.8059 -0.2383 0.0162961 0.00302853 -0.000870749 0.1091 -2.1688 -0.1362 -9.93923e-017 1.59028e-015 -7.95139e-016 0.6151 -8.09471 -3.564 2.51585e-007 -1.67813e-006 1.68633e-006 0.4882 -2.341 -0.6462 0.0145763 0.00367849 -0.00326009 0.3574 -1.7166 -0.4742 -1.49089e-015 -1.59028e-015 3.97569e-016 1.4199 -1.8761 1.4221 2.51585e-007 -1.67813e-006 1.68633e-006 1.1472 -3.4929 2.6336 9.93923e-017 -3.18055e-015 7.95139e-016 0.8229 -2.3 1.6571 1.98785e-016 -3.18055e-015 1.59028e-015 -9.412 3.9771 -0.7758 -29.2756 -44.8067 -30.995 -0.7531 -40.938 -7.10543e-015 15.8653 38.4293 -15.2235 -3.55271e-015 -40.1986 0 12.9282 -2.40366 -0.247997 0 -4.4182 9.239 -1.36158e-006 -3.6128e-006 6.2242e-006 9.4119 3.9773 -0.7758 29.2565 -44.8229 30.9668 0.7532 -40.9383 7.10543e-015 -15.8651 38.4159 15.2246 0 -40.1986 -7.10543e-015 -12.9511 -2.38654 0.248671 0 -4.4182 9.239 5.56597e-015 4.77083e-015 3.18055e-015 
-0.00812709 55.1225 -15.217 0.0104575 -9.83099 -179.878 0 8.7983 -4.7612 -1.07316 1.31724 -0.321117 -2.22045e-016 8.0291 0.4195 -2.13976 2.64025 -0.617739 0 9.9351 -2.2114 -2.13976 2.64024 -0.617739 8.88178e-016 22.3885 -0.4656 4.1948e-005 -22.6104 1.23684e-005 -0.0001 12.643 3.4389 1.26224e-006 -26.6365 5.79336e-007 2.2603 21.606 7.4023 -16.4123 24.3118 -38.938 13.5163 -1.1332 -5.0146 29.4948 42.1238 34.293 -0.0995 -28.05 -0.2431 -14.7831 -59.3175 18.5787 0.0679 -23.3996 -0.1402 -16.9209 -2.17159 -0.360881 0.7932 -9.06901 2.5189 4.19799e-006 9.2683e-007 -2.10246e-007 -0.8272 -3.3923 0.5977 6.4605e-016 -1.59028e-015 -7.95139e-016 -0.5649 -2.3158 0.4082 9.44227e-016 -1.59028e-015 -0 0.9159 -9.20441 0.2193 4.19799e-006 9.2683e-007 -2.10246e-007 0.0117 -4.1944 -0.0248 -0.0128532 0.00233171 8.63702e-005 0.0071 -2.3249 -0.0142 8.94531e-016 -1.59028e-015 3.97569e-016 0.6113 -8.72311 -2.0637 4.19799e-006 9.2683e-007 -2.10246e-007 -0.1927 -3.8059 -0.2383 -0.016065 0.00299791 0.000857317 -0.1091 -2.1688 -0.1362 3.42904e-015 -1.59028e-015 3.97569e-016 -0.6151 -8.09471 -3.5641 4.19799e-006 9.2683e-007 -2.10246e-007 -0.4882 -2.341 -0.6462 -0.0125969 0.00312676 0.00283051 -0.3575 -1.7167 -0.4742 7.95139e-016 -1.59028e-015 -0 -1.42 -1.8761 1.4223 4.19799e-006 9.2683e-007 -2.10246e-007 -1.1471 -3.4929 2.6334 6.4605e-016 -1.59028e-015 -7.95139e-016 -0.823 -2.3 1.6571 9.44227e-016 -1.59028e-015 -0 -2.2603 21.606 7.4023 18.1804 24.3376 33.8049 -13.5187 -1.1334 -5.0155 -33.7433 40.4135 -27.6633 0.0994 -28.0499 -0.2431 19.549 -59.1946 -15.156 -0.0679 -23.3996 -0.1402 16.9147 -2.15288 0.69592 -0.7932 -9.06911 2.5189 -2.9129e-008 -3.73878e-009 -2.11118e-007 0.8272 -3.3923 0.5977 -2.48481e-016 1.59028e-015 -0 0.565 -2.3158 0.4082 -2.9129e-008 -8.4656e-007 -2.11118e-007 -0.916 -9.20441 0.2193 -2.9129e-008 -3.73878e-009 -2.11118e-007 -0.0117 -4.1944 -0.0248 0.0129017 0.00230523 -8.75876e-005 -0.0071 -2.3249 -0.0142 -2.91232e-008 1.59028e-015 -2.11119e-007 -0.6113 -8.72311 -2.0637 -2.9129e-008 -3.73878e-009 -2.11118e-007 0.1927 -3.8059 -0.2383 0.0163418 0.00303419 -0.000874082 0.1091 -2.1688 -0.1362 -5.82424e-008 1.59028e-015 -4.22239e-007 0.6151 -8.09471 -3.564 -2.9129e-008 -3.73878e-009 -2.11118e-007 0.4882 -2.341 -0.6462 0.014544 0.00366732 -0.00325396 0.3574 -1.7166 -0.4742 -2.91185e-008 -3.74049e-009 -2.1112e-007 1.4199 -1.8761 1.4221 -2.9129e-008 -3.73878e-009 -2.11118e-007 1.1472 -3.4929 2.6336 -2.48481e-016 1.59028e-015 -0 0.8229 -2.3 1.6571 -2.9129e-008 -8.4656e-007 -2.11118e-007 -9.412 3.9771 -0.7758 -29.4175 -45.1333 -31.1434 -0.7531 -40.938 7.10543e-015 15.8659 38.4318 -15.2242 -7.10543e-015 -40.1986 -7.10542e-015 12.9285 -2.40625 -0.247245 3.55271e-015 -4.4182 9.239 -2.92878e-006 1.7063e-006 1.82804e-006 9.4119 3.9773 -0.7758 29.398 -45.1488 31.1147 0.7532 -40.9383 7.10543e-015 -15.8658 38.418 15.2251 -3.55271e-015 -40.1986 0 -12.9514 -2.38906 0.247981 -3.55271e-015 -4.4182 9.239 -0 -3.18055e-015 -0 
-0.00779267 55.1101 -15.1364 0.0104368 -10.1641 -179.883 0 8.7983 -4.7612 -1.07338 1.35336 -0.319145 0 8.0291 0.4195 -2.14011 2.71244 -0.613125 8.88178e-016 9.9351 -2.2114 -2.14011 2.71243 -0.613124 -8.88178e-016 22.3885 -0.4656 3.66501e-006 -22.1655 1.17735e-006 -0.0001 12.643 3.4389 2.236e-006 -26.205 1.01081e-006 2.2603 21.606 7.4023 -16.7923 24.4714 -38.7206 13.5163 -1.1332 -5.0146 30.0917 42.0344 33.925 -0.0995 -28.05 -0.2431 -14.3868 -59.1366 18.9365 0.0679 -23.3996 -0.1402 -16.9209 -2.17162 -0.360869 0.7932 -9.06901 2.5189 1.01933e-006 3.00913e-006 1.14693e-006 -0.827199 -3.3923 0.5977 9.80186e-006 -3.2063e-006 -1.33113e-006 -0.5649 -2.3158 0.4082 1.59028e-015 0 -0 0.915899 -9.20441 0.2193 1.01933e-006 3.00913e-006 1.14693e-006 0.0117 -4.1944 -0.0248 -0.0128282 0.00232381 8.36645e-005 0.0071 -2.3249 -0.0142 6.4605e-016 1.59028e-015 3.97569e-016 0.6113 -8.7231 -2.0637 1.01933e-006 3.00913e-006 1.14693e-006 -0.1927 -3.8059 -0.2383 -0.0160065 0.00298394 0.000854098 -0.1091 -2.1688 -0.1362 -2.53947e-014 1.59028e-015 4.77083e-015 -0.6151 -8.0947 -3.5641 1.01933e-006 3.00913e-006 1.14693e-006 -0.4882 -2.341 -0.6462 -0.0126065 0.00312378 0.00283169 -0.3575 -1.7167 -0.4742 3.19687e-008 -4.4912e-009 2.10848e-007 -1.42 -1.8761 1.4223 1.01933e-006 3.00913e-006 1.14693e-006 -1.1471 -3.4929 2.6334 9.80186e-006 -3.2063e-006 -1.33113e-006 -0.822999 -2.3 1.6571 1.59028e-015 0 -0 -2.2603 21.606 7.4023 18.5818 24.5204 33.5725 -13.5187 -1.1334 -5.0155 -34.2631 40.2843 -27.3682 0.0994 -28.0499 -0.2431 19.1195 -59.0053 -15.5454 -0.0679 -23.3996 -0.1402 16.9147 -2.15286 0.695906 -0.7932 -9.06911 2.5189 -2.68109e-008 -2.38542e-014 -2.11419e-007 0.8272 -3.3923 0.5977 6.95746e-016 -2.54444e-014 -3.97569e-016 0.565 -2.3158 0.4082 -5.36219e-008 -8.44817e-007 -4.22838e-007 -0.916 -9.20441 0.2193 -2.68109e-008 -2.38542e-014 -2.11419e-007 -0.0117 -4.1944 -0.0248 0.0129884 0.00232488 -8.84602e-005 -0.0071 -2.3249 -0.0142 -5.36101e-008 -3.42335e-009 -4.2284e-007 -0.6113 -8.72311 -2.0637 -2.68109e-008 -2.38542e-014 -2.11419e-007 0.1927 -3.8059 -0.2383 0.0163698 0.00304189 -0.000875939 0.1091 -2.1688 -0.1362 -5.36062e-008 -8.44822e-007 -4.2284e-007 0.6151 -8.09471 -3.564 -2.68109e-008 -2.38542e-014 -2.11419e-007 0.4882 -2.341 -0.6462 0.0146196 0.00368767 -0.00326879 0.3574 -1.7166 -0.4742 -7.45442e-016 -8.44829e-007 1.19271e-015 1.4199 -1.8761 1.4221 -2.68109e-008 -2.38542e-014 -2.11419e-007 1.1472 -3.4929 2.6336 6.95746e-016 -2.54444e-014 -3.97569e-016 0.8229 -2.3 1.6571 -5.36219e-008 -8.44817e-007 -4.22838e-007 -9.412 3.9771 -0.7758 -29.562 -45.459 -31.2943 -0.7531 -40.938 0 15.8672 38.4335 -15.2247 3.55271e-015 -40.1986 0 12.9288 -2.4087 -0.246537 0 -4.4182 9.239 -2.59312e-006 -2.15544e-006 3.36226e-006 9.4119 3.9773 -0.7758 29.5415 -45.4746 31.2646 0.7532 -40.9383 0 -15.8665 38.4201 15.2258 0 -40.1986 0 -12.9517 -2.39159 0.247211 0 -4.4182 9.239 3.18055e-015 4.77083e-015 6.36111e-015 
-0.00746113 55.0979 -15.0557 0.0103802 -10.4972 -179.887 0 8.7983 -4.7612 -1.07361 1.38945 -0.31717 0 8.0291 0.4195 -2.14045 2.7846 -0.608505 -8.88178e-016 9.9351 -2.2114 -2.14044 2.78459 -0.608503 1.77636e-015 22.3885 -0.4656 -7.23667e-005 -21.72 -2.11891e-005 -0.0001 12.643 3.4389 -1.26122e-007 -25.773 -2.51131e-007 2.2603 21.606 7.4023 -17.1735 24.6298 -38.5016 13.5163 -1.1332 -5.0146 30.6812 41.9488 33.5625 -0.0995 -28.05 -0.2431 -13.9978 -58.9622 19.2862 0.0679 -23.3996 -0.1402 -16.9209 -2.17163 -0.36088 0.7932 -9.069 2.5189 -2.99179e-008 4.11979e-009 -2.11143e-007 -0.8272 -3.3923 0.5977 -2.99179e-008 8.44753e-007 -2.11143e-007 -0.5649 -2.3158 0.4082 -5.98358e-008 4.11979e-009 -4.22285e-007 0.9159 -9.2044 0.2193 -2.99179e-008 4.11979e-009 -2.11143e-007 0.0117 -4.1944 -0.0248 -0.012823 0.0023257 8.49198e-005 0.0071 -2.3249 -0.0142 -5.98227e-008 4.11849e-009 -4.22288e-007 0.6113 -8.7231 -2.0637 -2.99179e-008 4.11979e-009 -2.11143e-007 -0.1927 -3.8059 -0.2383 -0.0160559 0.00299656 0.000858403 -0.1091 -2.1688 -0.1362 -1.08644e-005 1.60161e-006 7.96629e-007 -0.6151 -8.0947 -3.5641 -2.99179e-008 4.11979e-009 -2.11143e-007 -0.4882 -2.341 -0.6462 -0.0125765 0.00312181 0.00282503 -0.3575 -1.7167 -0.4742 -2.99084e-008 8.18329e-007 -2.11144e-007 -1.42 -1.8761 1.4223 -2.99179e-008 4.11979e-009 -2.11143e-007 -1.1471 -3.4929 2.6334 -2.99179e-008 8.44753e-007 -2.11143e-007 -0.823 -2.3 1.6571 -5.98358e-008 4.11979e-009 -4.22285e-007 -2.2603 21.606 7.4023 18.9847 24.7019 33.3382 -13.5187 -1.1334 -5.0155 -34.7782 40.1578 -27.077 0.0994 -28.0499 -0.2431 18.6977 -58.8194 -15.9267 -0.0679 -23.3996 -0.1402 16.9147 -2.15287 0.695924 -0.7932 -9.0691 2.5189 2.44942e-008 3.11259e-009 2.11694e-007 0.8272 -3.3923 0.5977 1.44119e-015 2.38542e-015 -7.95139e-016 0.565 -2.3158 0.4082 4.89883e-008 4.27642e-007 4.23388e-007 -0.916 -9.2044 0.2193 2.44942e-008 3.11259e-009 2.11694e-007 -0.0117 -4.1944 -0.0248 0.0129177 0.00231085 -8.46453e-005 -0.0071 -2.3249 -0.0142 2.44883e-008 4.27642e-007 2.11695e-007 -0.6113 -8.7231 -2.0637 2.44942e-008 3.11259e-009 2.11694e-007 0.1927 -3.8059 -0.2383 0.0163502 0.00303778 -0.000873599 0.1091 -2.1688 -0.1362 4.89727e-008 4.27642e-007 4.2339e-007 0.6151 -8.0947 -3.564 2.44942e-008 3.11259e-009 2.11694e-007 0.4882 -2.341 -0.6462 0.0146393 0.00369629 -0.00327432 0.3574 -1.7166 -0.4742 4.89671e-008 4.27646e-007 4.2339e-007 1.4199 -1.8761 1.4221 2.44942e-008 3.11259e-009 2.11694e-007 1.1472 -3.4929 2.6336 1.44119e-015 2.38542e-015 -7.95139e-016 0.8229 -2.3 1.6571 4.89883e-008 4.27642e-007 4.23388e-007 -9.412 3.9771 -0.7758 -29.7085 -45.7844 -31.4471 -0.7531 -40.938 0 15.8682 38.4353 -15.2251 0 -40.1986 7.10543e-015 12.9291 -2.41115 -0.245831 0 -4.4182 9.239 3.93783e-006 -1.14647e-006 2.76877e-006 9.4119 3.9773 -0.7758 29.6883 -45.799 31.4175 0.7532 -40.9383 7.10543e-015 -15.8684 38.4216 15.2261 0 -40.1986 0 -12.9519 -2.39404 0.246504 0 -4.4182 9.239 5.35206e-006 2.93033e-006 4.34209e-006 
